<svg width="0" height="0" class="hidden">
  <symbol xmlns="http://www.w3.org/2000/svg" viewBox="0 0 1014 1018" id="bg-pattern-circles">
    <g transform="matrix(1 0 0 -1 0 1018)" fill="none" fill-rule="evenodd">
      <rect fill="#3E4062" x="213" y="214" width="588" height="590" rx="294"></rect>
      <rect stroke="#878D92" opacity=".5" x=".5" y=".5" width="1013" height="1017" rx="506.5"></rect>
      <rect stroke="#878D92" x="170.5" y="171.5" width="673" height="675" rx="336.5"></rect>
    </g>
  </symbol>
  <symbol xmlns="http://www.w3.org/2000/svg" viewBox="0 0 3175 3174" id="bg-pattern-intro-desktop">
    <defs>
      <linearGradient id="a" x1=".639%" x2="99.361%" y1="0%" y2="100%">
        <stop offset="0%" stop-color="#FF8F71"></stop>
        <stop offset="100%" stop-color="#FF3E55"></stop>
      </linearGradient>
    </defs>
    <path fill="url(#a)" fill-rule="evenodd" d="M1973.15 1193.185v788.41h-786.766v-688.41c0-55.228 44.772-100 100-100h686.767zm-1310.445-1.171c217.26 0 393.383 176.124 393.383 393.383v1.645c0 217.26-176.123 393.383-393.383 393.383S269.322 1804.3 269.322 1587.042v-1.645c0-217.26 176.124-393.383 393.383-393.383zm392.212-926.418v688.41c0 55.23-44.771 100-100 100H268.151v-788.41h786.766zm918.234 0v788.41h-686.767c-55.228 0-100-44.771-100-100v-688.41h786.767z" transform="rotate(22 162.072 2556.164)"></path>
  </symbol>
  <symbol xmlns="http://www.w3.org/2000/svg" viewBox="0 0 1324 1323" id="bg-pattern-intro-mobile">
    <defs>
      <linearGradient x1=".695%" y1="0%" x2="99.305%" y2="100%" id="a">
        <stop stop-color="#FF8F71" offset="0%"></stop>
        <stop stop-color="#FF3E55" offset="100%"></stop>
      </linearGradient>
    </defs>
    <path d="M821.895188,497.739327 L821.895188,825.739327 L493.895188,825.739327 L493.895188,597.739327 C493.895188,542.510852 538.666713,497.739327 593.895188,497.739327 L821.895188,497.739327 Z M276.655938,496.460979 C367.230637,496.460979 440.655938,569.88628 440.655938,660.460979 C440.655938,751.035678 367.230637,824.460979 276.655938,824.460979 C186.081239,824.460979 112.655938,751.035678 112.655938,660.460979 C112.655938,569.88628 186.081239,496.460979 276.655938,496.460979 Z M822.227687,111.489551 L822.227687,439.489551 L594.227687,439.489551 C538.999212,439.489551 494.227687,394.718026 494.227687,339.489551 L494.227687,339.489551 L494.227687,111.489551 L822.227687,111.489551 Z M440.061253,110.58581 L440.061253,338.58581 C440.061253,393.814285 395.289728,438.58581 340.061253,438.58581 L112.061253,438.58581 L112.061253,110.58581 L440.061253,110.58581 Z" transform="rotate(22 67.652 1066.199)" fill="url(#a)" fill-rule="evenodd"></path>
  </symbol>
  <symbol xmlns="http://www.w3.org/2000/svg" viewBox="0 0 10 7" id="icon-arrow-dark">
    <path fill="none" stroke="#FF7B86" stroke-width="2" d="M1 1l4 4 4-4"></path>
  </symbol>
  <symbol xmlns="http://www.w3.org/2000/svg" viewBox="0 0 10 7" id="icon-arrow-light">
    <path fill="none" stroke="#FFF" stroke-width="2" opacity=".75" d="M1 1l4 4 4-4"></path>
  </symbol>
  <symbol xmlns="http://www.w3.org/2000/svg" viewBox="0 0 26 26" id="icon-close">
    <path d="M23.607.98l1.414 1.413L14.414 13l10.607 10.607-1.414 1.414L13 14.414 2.393 25.021.98 23.607 11.586 13 .98 2.393 2.393.98 13 11.586 23.607.98z" fill="#FFF" fill-rule="evenodd"></path>
  </symbol>
  <symbol xmlns="http://www.w3.org/2000/svg" viewBox="0 0 32 18" id="icon-hamburger">
    <g fill="#FFF" fill-rule="evenodd">
      <path d="M0 0h32v2H0zM0 8h32v2H0zM0 16h32v2H0z"></path>
    </g>
  </symbol>
  <symbol xmlns="http://www.w3.org/2000/svg" xmlns:xlink="http://www.w3.org/1999/xlink" viewBox="0 0 925 882" id="illustration-editor-desktop">
    <defs>
      <linearGradient x1="0%" y1="27.881%" x2="100%" y2="72.119%" id="c">
        <stop stop-color="#FF8F71" offset="0%"></stop>
        <stop stop-color="#FF3E55" offset="100%"></stop>
      </linearGradient>
      <linearGradient x1="0%" y1="41.725%" x2="100%" y2="58.275%" id="e">
        <stop stop-color="#FF8F71" offset="0%"></stop>
        <stop stop-color="#FF3E55" offset="100%"></stop>
      </linearGradient>
      <filter x="-10.9%" y="-11.7%" width="121.8%" height="132.8%" filterUnits="objectBoundingBox" id="b">
        <feOffset dy="20" in="SourceAlpha" result="shadowOffsetOuter1"></feOffset>
        <feGaussianBlur stdDeviation="20" in="shadowOffsetOuter1" result="shadowBlurOuter1"></feGaussianBlur>
        <feColorMatrix values="0 0 0 0 0.421821759 0 0 0 0 0.554338424 0 0 0 0 0.893710371 0 0 0 0.243444056 0" in="shadowBlurOuter1"></feColorMatrix>
      </filter>
      <rect id="a" x="0" y="0" width="642" height="427" rx="15"></rect>
    </defs>
    <g transform="translate(40)" fill="none" fill-rule="evenodd">
      <rect fill="#2D2E40" opacity=".08" transform="matrix(1 0 0 -1 0 890)" x="145" y="144" width="600" height="602" rx="300"></rect>
      <rect stroke="#2D2E40" opacity=".5" transform="matrix(1 0 0 -1 0 882)" x="105.5" y="100.5" width="679" height="681" rx="339.5"></rect>
      <rect stroke="#2D2E40" opacity=".25" transform="matrix(1 0 0 -1 0 882)" x="5.5" y=".5" width="879" height="881" rx="439.5"></rect>
      <g transform="translate(0 242)">
        <mask id="d" fill="#fff">
          <use xlink:href="#a"></use>
        </mask>
        <g fill-rule="nonzero">
          <use fill="#000" filter="url(#b)" xlink:href="#a"></use>
          <use fill="url(#c)" xlink:href="#a"></use>
        </g>
        <path d="M3 125h636a3 3 0 013 3v296a3 3 0 01-3 3H3a3 3 0 01-3-3V128a3 3 0 013-3z" fill="#2D2E40" fill-rule="nonzero" mask="url(#d)"></path>
        <rect fill="#FFF" fill-rule="nonzero" mask="url(#d)" x="90.523" y="47.709" width="135.785" height="137.165" rx="3"></rect>
        <ellipse fill="#2D2E40" mask="url(#d)" cx="158.416" cy="116.888" rx="39.306" ry="39.36"></ellipse>
        <rect fill="#FFF" fill-rule="nonzero" mask="url(#d)" x="248.939" y="47.709" width="302.538" height="325.617" rx="3"></rect>
      </g>
      <path d="M209 284c47.125-73.367 81.977-113.013 104.557-118.938 33.87-8.886 23.765 83.14 72.535 72.473 48.77-10.666 54.716-103.974 91.603-108.37 36.887-4.397 56.402 80.946 72.515 88.81 10.742 5.241 24.005-6.094 39.79-34.007" stroke="url(#e)" stroke-width="8" stroke-linecap="round" transform="translate(0 242)"></path>
    </g>
  </symbol>
  <symbol xmlns="http://www.w3.org/2000/svg" xmlns:xlink="http://www.w3.org/1999/xlink" viewBox="0 0 406 331" id="illustration-editor-mobile">
    <defs>
      <linearGradient x1="0%" y1="27.846%" x2="100%" y2="72.154%" id="c">
        <stop stop-color="#FF8F71" offset="0%"></stop>
        <stop stop-color="#FF3E55" offset="100%"></stop>
      </linearGradient>
      <linearGradient x1="0%" y1="41.623%" x2="100%" y2="58.377%" id="e">
        <stop stop-color="#FF8F71" offset="0%"></stop>
        <stop stop-color="#FF3E55" offset="100%"></stop>
      </linearGradient>
      <filter x="-21.5%" y="-23%" width="142.9%" height="164.5%" filterUnits="objectBoundingBox" id="b">
        <feOffset dy="20" in="SourceAlpha" result="shadowOffsetOuter1"></feOffset>
        <feGaussianBlur stdDeviation="20" in="shadowOffsetOuter1" result="shadowBlurOuter1"></feGaussianBlur>
        <feColorMatrix values="0 0 0 0 0.421821759 0 0 0 0 0.554338424 0 0 0 0 0.893710371 0 0 0 0.243444056 0" in="shadowBlurOuter1"></feColorMatrix>
      </filter>
      <rect id="a" x="0" y="0" width="326" height="217" rx="5"></rect>
    </defs>
    <g fill="none" fill-rule="evenodd">
      <g transform="translate(40)">
        <rect fill="#2D2E40" opacity=".08" transform="matrix(1 0 0 -1 0 329)" x="52" y="53" width="223" height="223" rx="111.5"></rect>
        <rect stroke="#2D2E40" opacity=".5" transform="matrix(1 0 0 -1 0 326)" x="37.5" y="37.5" width="251" height="251" rx="125.5"></rect>
        <rect stroke="#2D2E40" opacity=".25" transform="matrix(1 0 0 -1 0 326)" x=".5" y=".5" width="325" height="325" rx="162.5"></rect>
      </g>
      <g transform="translate(40 54)">
        <mask id="d" fill="#fff">
          <use xlink:href="#a"></use>
        </mask>
        <g fill-rule="nonzero">
          <use fill="#000" filter="url(#b)" xlink:href="#a"></use>
          <use fill="url(#c)" xlink:href="#a"></use>
        </g>
        <path d="M3 63.525h320a3 3 0 013 3V214a3 3 0 01-3 3H3a3 3 0 01-3-3V66.525a3 3 0 013-3z" fill="#2D2E40" fill-rule="nonzero" mask="url(#d)"></path>
        <rect fill="#FFF" fill-rule="nonzero" mask="url(#d)" x="45.967" y="24.246" width="68.95" height="69.707" rx="3"></rect>
        <ellipse fill="#2D2E40" mask="url(#d)" cx="80.442" cy="59.402" rx="19.959" ry="20.003"></ellipse>
        <rect fill="#FFF" fill-rule="nonzero" mask="url(#d)" x="126.408" y="24.246" width="153.625" height="165.478" rx="3"></rect>
      </g>
      <path d="M106 144c23.871-37.394 41.526-57.6 52.964-60.62 17.158-4.53 12.04 42.374 36.744 36.938 24.705-5.436 27.717-52.994 46.403-55.234 18.685-2.241 28.57 41.257 36.733 45.264 5.441 2.672 12.16-3.105 20.156-17.332" stroke="url(#e)" stroke-width="8" stroke-linecap="round" transform="translate(40 54)"></path>
    </g>
  </symbol>
  <symbol xmlns="http://www.w3.org/2000/svg" xmlns:xlink="http://www.w3.org/1999/xlink" viewBox="0 0 974 786" id="illustration-laptop-desktop">
    <defs>
      <linearGradient x1="0%" y1="27.97%" x2="100%" y2="72.03%" id="c">
        <stop stop-color="#FF8F71" offset="0%"></stop>
        <stop stop-color="#FF3E55" offset="100%"></stop>
      </linearGradient>
      <filter x="-16.5%" y="-28.5%" width="132.9%" height="157.1%" filterUnits="objectBoundingBox" id="a">
        <feOffset dy="20" in="SourceAlpha" result="shadowOffsetOuter1"></feOffset>
        <feGaussianBlur stdDeviation="20" in="shadowOffsetOuter1" result="shadowBlurOuter1"></feGaussianBlur>
        <feColorMatrix values="0 0 0 0 0.421821759 0 0 0 0 0.554338424 0 0 0 0 0.893710371 0 0 0 0.243444056 0" in="shadowBlurOuter1" result="shadowMatrixOuter1"></feColorMatrix>
        <feMerge>
          <feMergeNode in="shadowMatrixOuter1"></feMergeNode>
          <feMergeNode in="SourceGraphic"></feMergeNode>
        </feMerge>
      </filter>
      <rect id="b" x="0" y="0" width="506" height="335.872" rx="3"></rect>
      <path d="M3 0h692.9a3 3 0 013 3v14.105H0V3a3 3 0 013-3z" id="e"></path>
    </defs>
    <g fill="none" fill-rule="evenodd">
      <rect stroke="#2D2E40" opacity=".5" transform="matrix(1 0 0 -1 0 786)" x="59.5" y="59.5" width="665" height="667" rx="332.5"></rect>
      <rect stroke="#2D2E40" opacity=".25" transform="matrix(1 0 0 -1 0 786)" x=".5" y=".5" width="783" height="785" rx="391.5"></rect>
      <rect fill="#2D2E40" opacity=".08" transform="matrix(1 0 0 -1 0 786)" x="117" y="117" width="550" height="552" rx="275"></rect>
      <g transform="translate(190 192)" filter="url(#a)">
        <rect fill="#535353" fill-rule="nonzero" x="82" y="16" width="538" height="368" rx="12"></rect>
        <rect fill="#1D1D25" fill-rule="nonzero" x="85" y="19" width="532" height="362" rx="10"></rect>
        <g transform="translate(99 32)">
          <mask id="d" fill="#fff">
            <use xlink:href="#b"></use>
          </mask>
          <use fill="url(#c)" fill-rule="nonzero" xlink:href="#b"></use>
          <rect fill="#F9F6F6" fill-rule="nonzero" mask="url(#d)" x="-.325" y="60.293" width="506" height="275.838" rx="3"></rect>
          <g mask="url(#d)" fill-rule="nonzero">
            <g transform="translate(71.475 37.46)">
              <rect fill="#FFF" width="106.646" height="256.541" rx="3"></rect>
              <rect fill="#FFF" x="124.798" width="238.251" height="256.541" rx="3"></rect>
              <rect fill="#E7E7E7" x="135.009" y="13.622" width="217.83" height="60.162" rx="3"></rect>
              <rect fill="#E7E7E7" x="135.009" y="86.27" width="64.668" height="60.162" rx="3"></rect>
              <rect fill="#E7E7E7" x="215.561" y="86.27" width="137.278" height="60.162" rx="3"></rect>
            </g>
          </g>
        </g>
        <g transform="translate(349)" fill="#4A5166" fill-rule="nonzero" opacity=".098">
          <rect width="13.6" height="3" rx="1.5"></rect>
          <rect x="16.8" width="3.2" height="3" rx="1.5"></rect>
        </g>
        <g transform="translate(0 380)">
          <mask id="f" fill="#fff">
            <use xlink:href="#e"></use>
          </mask>
          <use fill="#52526F" fill-rule="nonzero" xlink:href="#e"></use>
          <rect fill="#2F2F47" fill-rule="nonzero" mask="url(#f)" x="292.371" y="-41.908" width="114.156" height="52.171" rx="10"></rect>
        </g>
        <path d="M0 397h699a6 6 0 01-6 6H6a6 6 0 01-6-6z" fill="#393A56" fill-rule="nonzero"></path>
      </g>
    </g>
  </symbol>
  <symbol xmlns="http://www.w3.org/2000/svg" xmlns:xlink="http://www.w3.org/1999/xlink" viewBox="0 0 498 359" id="illustration-laptop-mobile">
    <defs>
      <linearGradient x1="0%" y1="27.795%" x2="100%" y2="72.205%" id="c">
        <stop stop-color="#FF8F71" offset="0%"></stop>
        <stop stop-color="#FF3E55" offset="100%"></stop>
      </linearGradient>
      <filter x="-35.1%" y="-60.8%" width="170.1%" height="221.7%" filterUnits="objectBoundingBox" id="a">
        <feOffset dy="20" in="SourceAlpha" result="shadowOffsetOuter1"></feOffset>
        <feGaussianBlur stdDeviation="20" in="shadowOffsetOuter1" result="shadowBlurOuter1"></feGaussianBlur>
        <feColorMatrix values="0 0 0 0 0.421821759 0 0 0 0 0.554338424 0 0 0 0 0.893710371 0 0 0 0.243444056 0" in="shadowBlurOuter1" result="shadowMatrixOuter1"></feColorMatrix>
        <feMerge>
          <feMergeNode in="shadowMatrixOuter1"></feMergeNode>
          <feMergeNode in="SourceGraphic"></feMergeNode>
        </feMerge>
      </filter>
      <rect id="b" x="0" y="0" width="237" height="157.94" rx="3"></rect>
      <path d="M3 0h321.953a3 3 0 013 3v4.602H0V3a3 3 0 013-3z" id="e"></path>
    </defs>
    <g fill="none" fill-rule="evenodd">
      <g transform="translate(86 17)">
        <rect fill="#2D2E40" opacity=".08" transform="matrix(1 0 0 -1 0 329)" x="52" y="53" width="223" height="223" rx="111.5"></rect>
        <rect stroke="#2D2E40" opacity=".5" transform="matrix(1 0 0 -1 0 326)" x="37.5" y="37.5" width="251" height="251" rx="125.5"></rect>
        <rect stroke="#2D2E40" opacity=".25" transform="matrix(1 0 0 -1 0 326)" x=".5" y=".5" width="325" height="325" rx="162.5"></rect>
      </g>
      <g filter="url(#a)" transform="translate(85 85)">
        <rect fill="#535353" fill-rule="nonzero" x="39" y="7" width="252" height="173" rx="12"></rect>
        <rect fill="#1D1D25" fill-rule="nonzero" x="40" y="9" width="250" height="170" rx="10"></rect>
        <g transform="translate(47 15)">
          <mask id="d" fill="#fff">
            <use xlink:href="#b"></use>
          </mask>
          <use fill="url(#c)" fill-rule="nonzero" xlink:href="#b"></use>
          <rect fill="#F9F6F6" fill-rule="nonzero" mask="url(#d)" x="-.152" y="28.352" width="237" height="129.709" rx="3"></rect>
          <g mask="url(#d)" fill-rule="nonzero">
            <g transform="translate(33.478 17.615)">
              <rect fill="#FFF" width="49.951" height="120.635" rx="3"></rect>
              <rect fill="#FFF" x="58.453" width="111.592" height="120.635" rx="3"></rect>
              <rect fill="#E7E7E7" x="63.235" y="6.405" width="102.027" height="28.291" rx="3"></rect>
              <rect fill="#E7E7E7" x="63.235" y="40.568" width="30.289" height="28.291" rx="3"></rect>
              <rect fill="#E7E7E7" x="100.964" y="40.568" width="64.298" height="28.291" rx="3"></rect>
            </g>
          </g>
        </g>
        <g transform="translate(164)" fill="#4A5166" fill-rule="nonzero" opacity=".098">
          <rect width="6.12" height="1" rx=".5"></rect>
          <rect x="7.56" width="1.44" height="1" rx=".5"></rect>
        </g>
        <g transform="translate(0 178)">
          <mask id="f" fill="#fff">
            <use xlink:href="#e"></use>
          </mask>
          <use fill="#52526F" fill-rule="nonzero" xlink:href="#e"></use>
          <rect fill="#2F2F47" fill-rule="nonzero" mask="url(#f)" x="137.193" y="-18.626" width="53.567" height="23.187" rx="10"></rect>
        </g>
        <path d="M0 186h328a3 3 0 01-3 3H3a3 3 0 01-3-3z" fill="#393A56" fill-rule="nonzero"></path>
      </g>
    </g>
  </symbol>
  <symbol xmlns="http://www.w3.org/2000/svg" xmlns:xlink="http://www.w3.org/1999/xlink" viewBox="0 0 552 579" id="illustration-phones">
    <defs>
      <filter x="-32.1%" y="-11.5%" width="164.2%" height="132.2%" filterUnits="objectBoundingBox" id="b">
        <feOffset dy="20" in="SourceAlpha" result="shadowOffsetOuter1"></feOffset>
        <feGaussianBlur stdDeviation="20" in="shadowOffsetOuter1" result="shadowBlurOuter1"></feGaussianBlur>
        <feColorMatrix values="0 0 0 0 0.421821759 0 0 0 0 0.554338424 0 0 0 0 0.893710371 0 0 0 0.243444056 0" in="shadowBlurOuter1"></feColorMatrix>
      </filter>
      <filter x="-21%" y="-42.8%" width="142%" height="219.8%" filterUnits="objectBoundingBox" id="e">
        <feOffset dy="10" in="SourceAlpha" result="shadowOffsetOuter1"></feOffset>
        <feGaussianBlur stdDeviation="10" in="shadowOffsetOuter1" result="shadowBlurOuter1"></feGaussianBlur>
        <feColorMatrix values="0 0 0 0 0.421821759 0 0 0 0 0.554338424 0 0 0 0 0.893710371 0 0 0 0.243444056 0" in="shadowBlurOuter1"></feColorMatrix>
      </filter>
      <filter x="-21%" y="-42.8%" width="142%" height="219.8%" filterUnits="objectBoundingBox" id="g">
        <feOffset dy="10" in="SourceAlpha" result="shadowOffsetOuter1"></feOffset>
        <feGaussianBlur stdDeviation="10" in="shadowOffsetOuter1" result="shadowBlurOuter1"></feGaussianBlur>
        <feColorMatrix values="0 0 0 0 0.421821759 0 0 0 0 0.554338424 0 0 0 0 0.893710371 0 0 0 0.243444056 0" in="shadowBlurOuter1"></feColorMatrix>
      </filter>
      <filter x="-21%" y="-42.8%" width="142%" height="219.8%" filterUnits="objectBoundingBox" id="i">
        <feOffset dy="10" in="SourceAlpha" result="shadowOffsetOuter1"></feOffset>
        <feGaussianBlur stdDeviation="10" in="shadowOffsetOuter1" result="shadowBlurOuter1"></feGaussianBlur>
        <feColorMatrix values="0 0 0 0 0.421821759 0 0 0 0 0.554338424 0 0 0 0 0.893710371 0 0 0 0.243444056 0" in="shadowBlurOuter1"></feColorMatrix>
      </filter>
      <filter x="-21%" y="-42.8%" width="142%" height="219.8%" filterUnits="objectBoundingBox" id="k">
        <feOffset dy="10" in="SourceAlpha" result="shadowOffsetOuter1"></feOffset>
        <feGaussianBlur stdDeviation="10" in="shadowOffsetOuter1" result="shadowBlurOuter1"></feGaussianBlur>
        <feColorMatrix values="0 0 0 0 0.421821759 0 0 0 0 0.554338424 0 0 0 0 0.893710371 0 0 0 0.243444056 0" in="shadowBlurOuter1"></feColorMatrix>
      </filter>
      <filter x="-21%" y="-42.8%" width="142%" height="219.8%" filterUnits="objectBoundingBox" id="m">
        <feOffset dy="10" in="SourceAlpha" result="shadowOffsetOuter1"></feOffset>
        <feGaussianBlur stdDeviation="10" in="shadowOffsetOuter1" result="shadowBlurOuter1"></feGaussianBlur>
        <feColorMatrix values="0 0 0 0 0.421821759 0 0 0 0 0.554338424 0 0 0 0 0.893710371 0 0 0 0.243444056 0" in="shadowBlurOuter1"></feColorMatrix>
      </filter>
      <filter x="-32.1%" y="-11.5%" width="164.2%" height="132.2%" filterUnits="objectBoundingBox" id="o">
        <feOffset dy="20" in="SourceAlpha" result="shadowOffsetOuter1"></feOffset>
        <feGaussianBlur stdDeviation="20" in="shadowOffsetOuter1" result="shadowBlurOuter1"></feGaussianBlur>
        <feColorMatrix values="0 0 0 0 0.421821759 0 0 0 0 0.554338424 0 0 0 0 0.893710371 0 0 0 0.243444056 0" in="shadowBlurOuter1"></feColorMatrix>
      </filter>
      <rect id="f" x="0" y="0" width="166.649" height="58.441" rx="4"></rect>
      <rect id="h" x="0" y="72.397" width="166.649" height="58.441" rx="4"></rect>
      <rect id="j" x="0" y="144.794" width="166.649" height="58.441" rx="4"></rect>
      <rect id="l" x="0" y="217.192" width="166.649" height="58.441" rx="4"></rect>
      <rect id="n" x="0" y="289.589" width="166.649" height="58.441" rx="4"></rect>
      <linearGradient x1="38.371%" y1="0%" x2="61.629%" y2="100%" id="a">
        <stop stop-color="#FF8F71" offset="0%"></stop>
        <stop stop-color="#FF3E55" offset="100%"></stop>
      </linearGradient>
      <linearGradient x1="0%" y1="42.512%" x2="100%" y2="57.488%" id="d">
        <stop stop-color="#FF8F71" offset="0%"></stop>
        <stop stop-color="#FF3E55" offset="100%"></stop>
      </linearGradient>
      <path d="M204.442 401.894c0 10.587-7.815 19.708-18.398 19.708H35.126c-10.584 0-19.786-9.121-19.786-19.708V30.059c0-10.587 9.202-18.327 19.786-18.327h17.447c3.689 0 5.051-.422 5.275 4.255.116 2.43 1.007 4.318 2.435 5.881 1.426 1.534 3.39 2.794 5.646 3.501 1.531.48 3.236.914 4.861.914h79.751c1.626 0 3.33-.534 4.861-1.013 2.258-.707 4.22-1.887 5.647-3.392 1.428-1.535 2.319-3.344 2.434-5.773.223-4.676 1.587-4.373 5.276-4.373h17.285c10.583 0 18.398 7.74 18.398 18.327v371.835zM98.847 13.55h23.637c1.004 0 1.819.622 1.819 1.515 0 .893-.815 1.516-1.819 1.516H98.847c-1.005 0-1.818-.623-1.818-1.516s.813-1.515 1.818-1.515zm36.063.522a2.653 2.653 0 11-5.306 0 2.653 2.653 0 015.306 0zm81.048 84.968V31.254c0-17.144-13.893-31.042-31.032-31.042H34.148c-17.677 0-32.142 14.47-32.142 32.155v24.839a1.819 1.819 0 00-1.819 1.818v12.733a1.82 1.82 0 001.819 1.82v15.157a1.82 1.82 0 00-1.819 1.82v27.284a1.82 1.82 0 001.819 1.818v9.095a1.82 1.82 0 00-1.819 1.818v27.285a1.82 1.82 0 001.819 1.82V403.29c0 17.74 14.509 32.257 32.243 32.257h150.677c17.067 0 31.032-13.97 31.032-31.043v-255.14h.605a1.819 1.819 0 001.82-1.819v-46.685c0-1.005-.814-1.82-1.82-1.82h-.605z" id="c"></path>
      <path d="M204.442 401.894c0 10.587-7.815 19.708-18.398 19.708H35.126c-10.584 0-19.786-9.121-19.786-19.708V30.059c0-10.587 9.202-18.327 19.786-18.327h17.447c3.689 0 5.051-.422 5.275 4.255.116 2.43 1.007 4.318 2.435 5.881 1.426 1.534 3.39 2.794 5.646 3.501 1.531.48 3.236.914 4.861.914h79.751c1.626 0 3.33-.534 4.861-1.013 2.258-.707 4.22-1.887 5.647-3.392 1.428-1.535 2.319-3.344 2.434-5.773.223-4.676 1.587-4.373 5.276-4.373h17.285c10.583 0 18.398 7.74 18.398 18.327v371.835zM98.847 13.55h23.637c1.004 0 1.819.622 1.819 1.515 0 .893-.815 1.516-1.819 1.516H98.847c-1.005 0-1.818-.623-1.818-1.516s.813-1.515 1.818-1.515zm36.063.522a2.653 2.653 0 11-5.306 0 2.653 2.653 0 015.306 0zm81.048 84.968V31.254c0-17.144-13.893-31.042-31.032-31.042H34.148c-17.677 0-32.142 14.47-32.142 32.155v24.839a1.819 1.819 0 00-1.819 1.818v12.733a1.82 1.82 0 001.819 1.82v15.157a1.82 1.82 0 00-1.819 1.82v27.284a1.82 1.82 0 001.819 1.818v9.095a1.82 1.82 0 00-1.819 1.818v27.285a1.82 1.82 0 001.819 1.82V403.29c0 17.74 14.509 32.257 32.243 32.257h150.677c17.067 0 31.032-13.97 31.032-31.043v-255.14h.605a1.819 1.819 0 001.82-1.819v-46.685c0-1.005-.814-1.82-1.82-1.82h-.605z" id="p"></path>
    </defs>
    <g fill="none" fill-rule="evenodd">
      <g transform="translate(40 20)">
        <rect fill="url(#a)" x="8" y="5" width="204" height="423" rx="22"></rect>
        <path d="M65 227.56v-25.278h9.316c1.734 0 3.232.267 4.496.8 1.264.535 2.239 1.294 2.925 2.28.686.984 1.03 2.141 1.03 3.47 0 1.21-.266 2.273-.795 3.187a5.63 5.63 0 01-2.24 2.154c1.3.498 2.312 1.287 3.034 2.367s1.083 2.356 1.083 3.828c0 1.471-.385 2.74-1.155 3.809-.77 1.068-1.854 1.899-3.25 2.492s-3.045.89-4.947.89H65zm5.2-20.9v5.804h3.539c1.18 0 2.088-.243 2.726-.73.638-.487.957-1.205.957-2.154 0-.95-.32-1.673-.957-2.172-.638-.498-1.547-.747-2.726-.747h-3.54zm0 16.52h4.044c1.348 0 2.39-.285 3.124-.854.734-.57 1.101-1.389 1.101-2.457 0-1.068-.367-1.887-1.101-2.456-.735-.57-1.776-.855-3.124-.855H70.2v6.622zm16.863 4.38V201h5.056v26.56h-5.056zm18.272.533c-1.42 0-2.732-.249-3.936-.747a9.577 9.577 0 01-3.142-2.083 9.438 9.438 0 01-2.076-3.151c-.494-1.21-.74-2.528-.74-3.952s.252-2.735.758-3.934a9.78 9.78 0 012.112-3.15 9.594 9.594 0 013.178-2.101c1.216-.499 2.546-.748 3.99-.748 1.42 0 2.733.25 3.936.748a9.577 9.577 0 013.142 2.083 9.482 9.482 0 012.076 3.133c.494 1.198.74 2.51.74 3.934 0 1.424-.252 2.741-.758 3.951a9.73 9.73 0 01-2.112 3.169 9.594 9.594 0 01-3.178 2.1c-1.216.499-2.546.748-3.99.748zm.072-4.486c.915 0 1.733-.237 2.456-.712.722-.474 1.293-1.121 1.715-1.94.421-.819.632-1.75.632-2.795 0-1.044-.211-1.976-.632-2.795-.422-.818-.993-1.465-1.715-1.94-.723-.475-1.541-.712-2.456-.712s-1.733.237-2.455.712c-.723.475-1.294 1.122-1.716 1.94-.42.82-.632 1.75-.632 2.795s.211 1.976.632 2.795c.422.819.993 1.466 1.716 1.94.722.475 1.54.712 2.455.712zm21.124 3.418a8.081 8.081 0 01-3.376-.712 8.295 8.295 0 01-2.726-1.976 9.246 9.246 0 01-1.806-2.955c-.433-1.127-.65-2.344-.65-3.649 0-1.353.223-2.605.668-3.756a9.131 9.131 0 011.878-3.008 8.894 8.894 0 012.817-2.012c1.07-.486 2.232-.73 3.484-.73 1.228 0 2.335.244 3.322.73a6.447 6.447 0 012.456 2.118l.108-2.314h4.658v16.555c0 1.448-.234 2.765-.704 3.952a8.774 8.774 0 01-2.004 3.062 8.961 8.961 0 01-3.087 1.976c-1.192.463-2.51.694-3.954.694-1.42 0-2.697-.22-3.828-.659a9.174 9.174 0 01-2.961-1.833 8.656 8.656 0 01-1.986-2.742l4.839-1.174a4.737 4.737 0 001.679 1.62c.686.391 1.462.587 2.329.587.939 0 1.751-.208 2.437-.623a4.283 4.283 0 001.607-1.745c.385-.747.578-1.62.578-2.616v-1.531a6.795 6.795 0 01-2.474 2.011c-.999.487-2.1.73-3.304.73zm1.228-4.415c.89 0 1.68-.22 2.365-.658a4.816 4.816 0 001.643-1.78c.41-.748.614-1.596.614-2.546 0-.95-.204-1.798-.614-2.545a4.816 4.816 0 00-1.643-1.78c-.686-.44-1.474-.66-2.365-.66-.89 0-1.679.22-2.365.66a4.816 4.816 0 00-1.643 1.78c-.41.747-.614 1.596-.614 2.545 0 .95.205 1.798.614 2.546.41.747.957 1.34 1.643 1.78.686.439 1.474.658 2.365.658zm13.65 4.95V208.76h4.658l.18 2.848c.482-.996 1.132-1.762 1.95-2.296.819-.534 1.782-.801 2.89-.801.336 0 .673.03 1.01.089.337.06.638.137.903.231l-.542 4.914a3.86 3.86 0 00-.812-.196 6.647 6.647 0 00-.849-.054c-1.396 0-2.467.422-3.213 1.264-.747.843-1.12 2.035-1.12 3.578v9.221h-5.055z" fill="#FFF" fill-rule="nonzero"></path>
        <use fill="#000" filter="url(#b)" xlink:href="#c"></use>
        <use fill="#1D1D25" xlink:href="#c"></use>
        <path d="M122.484 13.55H98.847c-1.005 0-1.819.624-1.819 1.517 0 .892.814 1.515 1.82 1.515h23.636c1.005 0 1.82-.623 1.82-1.515 0-.893-.815-1.517-1.82-1.517M132.258 11.42a2.653 2.653 0 10.002 5.306 2.653 2.653 0 00-.002-5.306" fill="#000"></path>
      </g>
      <g transform="translate(293 83)">
        <rect fill="url(#a)" x="8" y="5" width="204" height="423" rx="22"></rect>
        <rect fill="#FFF" x="15" y="11" width="189.335" height="414.321" rx="22"></rect>
        <rect fill="url(#d)" x="15" y="11" width="189.335" height="73.269" rx="22"></rect>
        <g transform="translate(26.343 57.23)">
          <use fill="#000" filter="url(#e)" xlink:href="#f"></use>
          <use fill="#FFF" xlink:href="#f"></use>
        </g>
        <g transform="translate(26.343 57.23)">
          <use fill="#000" filter="url(#g)" xlink:href="#h"></use>
          <use fill="#FFF" xlink:href="#h"></use>
        </g>
        <g transform="translate(26.343 57.23)">
          <use fill="#000" filter="url(#i)" xlink:href="#j"></use>
          <use fill="#FFF" xlink:href="#j"></use>
        </g>
        <g transform="translate(26.343 57.23)">
          <use fill="#000" filter="url(#k)" xlink:href="#l"></use>
          <use fill="#FFF" xlink:href="#l"></use>
        </g>
        <g transform="translate(26.343 57.23)">
          <use fill="#000" filter="url(#m)" xlink:href="#n"></use>
          <use fill="#FFF" xlink:href="#n"></use>
        </g>
        <path d="M65 227.56v-25.278h9.316c1.734 0 3.232.267 4.496.8 1.264.535 2.239 1.294 2.925 2.28.686.984 1.03 2.141 1.03 3.47 0 1.21-.266 2.273-.795 3.187a5.63 5.63 0 01-2.24 2.154c1.3.498 2.312 1.287 3.034 2.367s1.083 2.356 1.083 3.828c0 1.471-.385 2.74-1.155 3.809-.77 1.068-1.854 1.899-3.25 2.492s-3.045.89-4.947.89H65zm5.2-20.9v5.804h3.539c1.18 0 2.088-.243 2.726-.73.638-.487.957-1.205.957-2.154 0-.95-.32-1.673-.957-2.172-.638-.498-1.547-.747-2.726-.747h-3.54zm0 16.52h4.044c1.348 0 2.39-.285 3.124-.854.734-.57 1.101-1.389 1.101-2.457 0-1.068-.367-1.887-1.101-2.456-.735-.57-1.776-.855-3.124-.855H70.2v6.622zm16.863 4.38V201h5.056v26.56h-5.056zm18.272.533c-1.42 0-2.732-.249-3.936-.747a9.577 9.577 0 01-3.142-2.083 9.438 9.438 0 01-2.076-3.151c-.494-1.21-.74-2.528-.74-3.952s.252-2.735.758-3.934a9.78 9.78 0 012.112-3.15 9.594 9.594 0 013.178-2.101c1.216-.499 2.546-.748 3.99-.748 1.42 0 2.733.25 3.936.748a9.577 9.577 0 013.142 2.083 9.482 9.482 0 012.076 3.133c.494 1.198.74 2.51.74 3.934 0 1.424-.252 2.741-.758 3.951a9.73 9.73 0 01-2.112 3.169 9.594 9.594 0 01-3.178 2.1c-1.216.499-2.546.748-3.99.748zm.072-4.486c.915 0 1.733-.237 2.456-.712.722-.474 1.293-1.121 1.715-1.94.421-.819.632-1.75.632-2.795 0-1.044-.211-1.976-.632-2.795-.422-.818-.993-1.465-1.715-1.94-.723-.475-1.541-.712-2.456-.712s-1.733.237-2.455.712c-.723.475-1.294 1.122-1.716 1.94-.42.82-.632 1.75-.632 2.795s.211 1.976.632 2.795c.422.819.993 1.466 1.716 1.94.722.475 1.54.712 2.455.712zm21.124 3.418a8.081 8.081 0 01-3.376-.712 8.295 8.295 0 01-2.726-1.976 9.246 9.246 0 01-1.806-2.955c-.433-1.127-.65-2.344-.65-3.649 0-1.353.223-2.605.668-3.756a9.131 9.131 0 011.878-3.008 8.894 8.894 0 012.817-2.012c1.07-.486 2.232-.73 3.484-.73 1.228 0 2.335.244 3.322.73a6.447 6.447 0 012.456 2.118l.108-2.314h4.658v16.555c0 1.448-.234 2.765-.704 3.952a8.774 8.774 0 01-2.004 3.062 8.961 8.961 0 01-3.087 1.976c-1.192.463-2.51.694-3.954.694-1.42 0-2.697-.22-3.828-.659a9.174 9.174 0 01-2.961-1.833 8.656 8.656 0 01-1.986-2.742l4.839-1.174a4.737 4.737 0 001.679 1.62c.686.391 1.462.587 2.329.587.939 0 1.751-.208 2.437-.623a4.283 4.283 0 001.607-1.745c.385-.747.578-1.62.578-2.616v-1.531a6.795 6.795 0 01-2.474 2.011c-.999.487-2.1.73-3.304.73zm1.228-4.415c.89 0 1.68-.22 2.365-.658a4.816 4.816 0 001.643-1.78c.41-.748.614-1.596.614-2.546 0-.95-.204-1.798-.614-2.545a4.816 4.816 0 00-1.643-1.78c-.686-.44-1.474-.66-2.365-.66-.89 0-1.679.22-2.365.66a4.816 4.816 0 00-1.643 1.78c-.41.747-.614 1.596-.614 2.545 0 .95.205 1.798.614 2.546.41.747.957 1.34 1.643 1.78.686.439 1.474.658 2.365.658zm13.65 4.95V208.76h4.658l.18 2.848c.482-.996 1.132-1.762 1.95-2.296.819-.534 1.782-.801 2.89-.801.336 0 .673.03 1.01.089.337.06.638.137.903.231l-.542 4.914a3.86 3.86 0 00-.812-.196 6.647 6.647 0 00-.849-.054c-1.396 0-2.467.422-3.213 1.264-.747.843-1.12 2.035-1.12 3.578v9.221h-5.055z" fill="#FFF" fill-rule="nonzero"></path>
        <g>
          <use fill="#000" filter="url(#o)" xlink:href="#p"></use>
          <use fill="#1D1D25" xlink:href="#p"></use>
          <path d="M122.484 13.55H98.847c-1.005 0-1.819.624-1.819 1.517 0 .892.814 1.515 1.82 1.515h23.636c1.005 0 1.82-.623 1.82-1.515 0-.893-.815-1.517-1.82-1.517M132.258 11.42a2.653 2.653 0 10.002 5.306 2.653 2.653 0 00-.002-5.306" fill="#000"></path>
        </g>
      </g>
    </g>
  </symbol>
  <symbol xmlns="http://www.w3.org/2000/svg" viewBox="0 0 101 40" id="logo">
    <path d="M0 30.803V1.486h10.653c1.982 0 3.695.31 5.14.93 1.446.619 2.56 1.5 3.345 2.642.785 1.142 1.177 2.484 1.177 4.026 0 1.404-.303 2.636-.909 3.695a6.48 6.48 0 01-2.56 2.498c1.487.578 2.643 1.494 3.469 2.746.826 1.253 1.239 2.732 1.239 4.439 0 1.707-.44 3.18-1.322 4.418-.88 1.239-2.12 2.202-3.716 2.89-1.596.688-3.482 1.033-5.657 1.033H0zM5.946 6.565v6.73h4.046c1.35 0 2.388-.282 3.118-.846.73-.564 1.094-1.397 1.094-2.498 0-1.101-.365-1.94-1.094-2.519-.73-.578-1.769-.867-3.118-.867H5.946zm0 19.159h4.624c1.542 0 2.732-.33 3.572-.991.84-.66 1.26-1.61 1.26-2.85 0-1.238-.42-2.188-1.26-2.848-.84-.66-2.03-.991-3.572-.991H5.946v7.68zm19.282 5.079V0h5.781v30.803h-5.78zm20.893.619c-1.624 0-3.124-.29-4.5-.867a10.94 10.94 0 01-3.593-2.416 10.96 10.96 0 01-2.374-3.654c-.564-1.404-.846-2.931-.846-4.583 0-1.652.289-3.173.867-4.563a11.354 11.354 0 012.415-3.654 10.96 10.96 0 013.634-2.436c1.39-.578 2.91-.867 4.562-.867 1.625 0 3.125.289 4.501.867a10.94 10.94 0 013.592 2.416 11.01 11.01 0 012.375 3.633c.564 1.39.846 2.911.846 4.563 0 1.651-.289 3.179-.867 4.583a11.297 11.297 0 01-2.416 3.675 10.96 10.96 0 01-3.633 2.436c-1.39.578-2.911.867-4.563.867zm.083-5.203c1.046 0 1.982-.275 2.808-.825.825-.551 1.48-1.301 1.96-2.25.483-.95.723-2.03.723-3.242 0-1.211-.24-2.292-.722-3.241-.482-.95-1.136-1.7-1.961-2.25-.826-.551-1.762-.826-2.808-.826-1.046 0-1.982.275-2.808.825-.826.55-1.48 1.301-1.961 2.25-.482.95-.723 2.03-.723 3.242 0 1.211.241 2.292.723 3.241.482.95 1.135 1.7 1.961 2.25.826.551 1.762.826 2.808.826zm24.155 3.964a9.13 9.13 0 01-3.86-.826 9.492 9.492 0 01-3.118-2.291c-.881-.977-1.57-2.12-2.065-3.427-.495-1.308-.743-2.719-.743-4.233 0-1.569.255-3.02.764-4.356a10.614 10.614 0 012.147-3.489 10.174 10.174 0 013.22-2.333c1.225-.564 2.554-.846 3.985-.846 1.404 0 2.67.282 3.799.846a7.402 7.402 0 012.807 2.457l.124-2.684h5.327v19.2c0 1.68-.269 3.207-.805 4.584-.537 1.376-1.301 2.56-2.292 3.55a10.231 10.231 0 01-3.53 2.292c-1.363.537-2.87.805-4.522.805-1.624 0-3.083-.254-4.376-.764a10.468 10.468 0 01-3.386-2.126 10.035 10.035 0 01-2.271-3.18L67.097 32a5.452 5.452 0 001.92 1.879c.784.454 1.672.681 2.663.681 1.074 0 2.003-.24 2.787-.723.785-.481 1.397-1.156 1.838-2.023.44-.867.66-1.879.66-3.035v-1.775a7.793 7.793 0 01-2.828 2.333c-1.143.564-2.402.846-3.778.846zm1.404-5.12c1.018 0 1.92-.254 2.704-.764a5.556 5.556 0 001.879-2.064c.468-.867.702-1.851.702-2.952 0-1.102-.234-2.086-.702-2.953a5.556 5.556 0 00-1.879-2.064c-.784-.51-1.686-.764-2.704-.764-1.019 0-1.92.255-2.705.764a5.556 5.556 0 00-1.879 2.064c-.468.867-.702 1.851-.702 2.953 0 1.1.234 2.085.702 2.952a5.556 5.556 0 001.88 2.064c.784.51 1.685.764 2.704.764zm15.607 5.74V9h5.327l.206 3.304c.55-1.157 1.294-2.044 2.23-2.664.936-.62 2.037-.929 3.303-.929.386 0 .77.035 1.156.103.386.07.73.159 1.033.269l-.62 5.698a4.361 4.361 0 00-.929-.227 7.495 7.495 0 00-.97-.062c-1.597 0-2.822.489-3.675 1.466-.853.977-1.28 2.36-1.28 4.15v10.694h-5.78z"  fill-rule="nonzero"></path>
  </symbol>
</svg>